<svg width="12" height="14" viewBox="0 0 12 14" fill="none" xmlns="http://www.w3.org/2000/svg">
<path d="M0.999997 6H8.59L5.29 2.71C5.10169 2.5217 4.99591 2.2663 4.99591 2C4.99591 1.7337 5.10169 1.47831 5.29 1.29C5.4783 1.1017 5.7337 0.995911 6 0.995911C6.2663 0.995911 6.52169 1.1017 6.71 1.29L11.71 6.29C11.801 6.38511 11.8724 6.49725 11.92 6.62C12.02 6.86346 12.02 7.13654 11.92 7.38C11.8724 7.50275 11.801 7.6149 11.71 7.71L6.71 12.71C6.61703 12.8037 6.50643 12.8781 6.38457 12.9289C6.26271 12.9797 6.13201 13.0058 6 13.0058C5.86798 13.0058 5.73728 12.9797 5.61542 12.9289C5.49356 12.8781 5.38296 12.8037 5.29 12.71C5.19627 12.617 5.12187 12.5064 5.07111 12.3846C5.02034 12.2627 4.9942 12.132 4.9942 12C4.9942 11.868 5.02034 11.7373 5.07111 11.6154C5.12187 11.4936 5.19627 11.383 5.29 11.29L8.59 8H0.999997C0.73478 8 0.480426 7.89465 0.29289 7.70711C0.105353 7.51957 -2.86102e-06 7.26522 -2.86102e-06 7C-2.86102e-06 6.73479 0.105353 6.48043 0.29289 6.2929C0.480426 6.10536 0.73478 6 0.999997 6Z" fill="white"/>
</svg>
