<svg width="15" height="15" viewBox="0 0 15 15" fill="none" xmlns="http://www.w3.org/2000/svg">
<path d="M13.3929 3.34801C13.3929 2.38644 12.6134 1.60693 11.6518 1.60693H3.34825C2.38668 1.60693 1.60718 2.38644 1.60718 3.34801V11.6516C1.60718 12.6131 2.38668 13.3926 3.34825 13.3926H6.56162C6.56162 13.3926 6.56254 13.1346 6.56254 12.9909V12.5891H3.34825C2.83048 12.5891 2.41075 12.1693 2.41075 11.6516V5.09068H12.5893V11.6516C12.5893 12.1693 12.1696 12.5891 11.6518 12.5891H8.43754V12.9909C8.43754 13.1346 8.43754 13.3926 8.43754 13.3926H11.6518C12.6134 13.3926 13.3929 12.6131 13.3929 11.6516V3.34801ZM3.34825 2.41051H11.6518C12.1696 2.41051 12.5893 2.83024 12.5893 3.34801V4.28711H2.41075V3.34801C2.41075 2.83024 2.83048 2.41051 3.34825 2.41051Z" fill="#5F5F5F"/>
<path d="M8.16961 7.09835C8.16961 7.46821 7.86982 7.768 7.49997 7.768C7.13011 7.768 6.83032 7.46821 6.83032 7.09835C6.83032 6.7285 7.13011 6.42871 7.49997 6.42871C7.86982 6.42871 8.16961 6.7285 8.16961 7.09835Z" fill="#5F5F5F"/>
<path d="M8.4384 10.8804C8.60426 11.0279 8.85824 11.013 9.00562 10.8471C9.15305 10.6813 9.13815 10.4273 8.9723 10.2799L7.76694 9.20842C7.61469 9.0731 7.3853 9.0731 7.23305 9.20842L6.02769 10.2799C5.86183 10.4273 5.84689 10.6813 5.99431 10.8471C6.14174 11.013 6.39573 11.0279 6.56158 10.8804L7.09821 10.4034V13.5266C7.09821 13.7485 7.2781 13.9284 7.49999 13.9284C7.72189 13.9284 7.90178 13.7485 7.90178 13.5266V10.4034L8.4384 10.8804Z" fill="#5F5F5F"/>
</svg>
