<svg width="24" height="24" viewBox="0 0 24 24" fill="none" xmlns="http://www.w3.org/2000/svg">
<path d="M24 4.81368V2.79946C24 1.5548 22.9874 0.542215 21.7428 0.542215H17.8628C17.5121 0.327426 17.1001 0.20343 16.6596 0.20343H2.31071C1.03662 0.203359 0 1.23998 0 2.51407V21.4859C0 22.7601 1.03662 23.7966 2.31071 23.7966H16.6596C17.1001 23.7966 17.5122 23.6725 17.8629 23.4577H21.7427C22.9873 23.4577 23.9999 22.4451 23.9999 21.2004V19.1862C23.9999 18.4955 23.6877 17.8766 23.1974 17.4622C23.6877 17.0478 23.9999 16.4289 23.9999 15.7382V13.7239C23.9999 13.0332 23.6877 12.4143 23.1974 11.9999C23.6877 11.5855 23.9999 10.9666 23.9999 10.2759V8.26168C23.9999 7.57096 23.6877 6.95205 23.1974 6.53768C23.6878 6.12325 24 5.50433 24 4.81368ZM17.9038 21.4859C17.9038 22.1719 17.3456 22.7301 16.6596 22.7301H2.31071C1.62468 22.7301 1.06648 22.1719 1.06648 21.4859V2.51407C1.06648 1.82804 1.62468 1.26984 2.31071 1.26984H16.6596C17.3456 1.26984 17.9038 1.82804 17.9038 2.51407V21.4859ZM22.9335 21.2005C22.9335 21.8571 22.3994 22.3913 21.7428 22.3913H18.7854C18.9044 22.1131 18.9703 21.8071 18.9703 21.486V17.9955H21.7428C22.3994 17.9955 22.9335 18.5297 22.9335 19.1863V21.2005ZM22.9335 15.7382C22.9335 16.3948 22.3994 16.929 21.7428 16.929H18.9703V12.5332H21.7428C22.3994 12.5332 22.9335 13.0673 22.9335 13.7239V15.7382ZM22.9335 10.2759C22.9335 10.9325 22.3994 11.4667 21.7428 11.4667H18.9703V7.07085H21.7428C22.3994 7.07085 22.9335 7.60502 22.9335 8.26161V10.2759ZM22.9335 4.81368C22.9335 5.47028 22.3994 6.00444 21.7428 6.00444H18.9703V2.51407C18.9703 2.19284 18.9043 1.88683 18.7853 1.60862H21.7428C22.3994 1.60862 22.9335 2.14279 22.9335 2.79939V4.81368Z" fill="white"/>
<path d="M16.097 16.3544H2.87329V17.4209H16.097V16.3544Z" fill="white"/>
<path d="M4.75586 14.6606H14.2145C14.3754 14.6606 14.5277 14.588 14.6289 14.463C14.7302 14.3379 14.7695 14.1739 14.7361 14.0165C14.4805 12.8145 13.8067 11.7289 12.8538 10.9579C13.4782 10.1887 13.8271 9.22036 13.8271 8.21901C13.8271 5.82483 11.8792 3.87701 9.48506 3.87701C7.09089 3.87701 5.14307 5.82483 5.14307 8.21901C5.14307 9.22036 5.49202 10.1887 6.11634 10.9579C5.16347 11.7289 4.48974 12.8144 4.23421 14.0165C4.20072 14.1739 4.24011 14.338 4.34136 14.463C4.44267 14.588 4.59497 14.6606 4.75586 14.6606ZM7.20536 11.4884C7.3467 11.3999 7.43849 11.2502 7.45335 11.0841C7.46821 10.9179 7.4045 10.7544 7.28115 10.6421C6.60009 10.0223 6.20955 9.1391 6.20955 8.21901C6.20955 6.41289 7.67894 4.94349 9.48506 4.94349C11.2912 4.94349 12.7606 6.41289 12.7606 8.21901C12.7606 9.1391 12.37 10.0223 11.689 10.6421C11.5656 10.7544 11.5019 10.9179 11.5168 11.0841C11.5316 11.2502 11.6234 11.3998 11.7648 11.4884C12.5578 11.9853 13.1679 12.7319 13.501 13.5942H5.46913C5.80222 12.7319 6.41232 11.9852 7.20536 11.4884Z" fill="white"/>
<path d="M14.432 18.4635H4.53821V19.53H14.432V18.4635Z" fill="white"/>
</svg>
