<svg width="24" height="24" viewBox="0 0 24 24" fill="none" xmlns="http://www.w3.org/2000/svg">
<path d="M7.07689 11.3026C6.74868 10.9744 6.21535 10.9744 5.88715 11.3026C5.55894 11.6308 5.55894 12.1641 5.88715 12.4923L9.76407 16.3692C9.92817 16.5333 10.1333 16.6154 10.3589 16.6154C10.3795 16.6154 10.3795 16.6154 10.4 16.6154C10.6256 16.5949 10.8512 16.4923 11.0154 16.3077L20.7179 4.67693C21.0051 4.32821 20.9641 3.79487 20.6154 3.48718C20.2666 3.2 19.7333 3.24103 19.4256 3.58975L10.2974 14.5231L7.07689 11.3026Z" fill="#DB133E"/>
<path d="M18.2769 1.90768C13.559 -1.04616 7.50767 -0.348726 3.56921 3.58974C-1.06669 8.22563 -1.06669 15.7949 3.56921 20.4308C5.88716 22.7487 8.94357 23.9179 11.9795 23.9179C15.0154 23.9179 18.0718 22.7487 20.3897 20.4308C24.3487 16.4718 25.0256 10.4 22.0513 5.68204C21.8051 5.2923 21.2923 5.16922 20.9025 5.41538C20.5128 5.66153 20.3897 6.17435 20.6359 6.56409C23.2 10.6256 22.6051 15.8359 19.2 19.241C15.2205 23.2205 8.71793 23.2205 4.73844 19.241C0.758952 15.2615 0.758952 8.75897 4.73844 4.77948C8.14357 1.39486 13.3333 0.799992 17.3949 3.32307C17.7846 3.56922 18.2974 3.44615 18.5436 3.0564C18.7897 2.66666 18.6666 2.15384 18.2769 1.90768Z" fill="#5F5F5F"/>
</svg>
