<svg width="30" height="30" viewBox="0 0 30 30" fill="none" xmlns="http://www.w3.org/2000/svg">
<rect x="0.5" y="0.5" width="29" height="29" rx="8.5" stroke="#F2F2F2"/>
<path d="M13.6 19.8C13.8122 19.8 14.0157 19.7157 14.1657 19.5657C14.3157 19.4157 14.4 19.2122 14.4 19V14.2C14.4 13.9878 14.3157 13.7843 14.1657 13.6343C14.0157 13.4843 13.8122 13.4 13.6 13.4C13.3878 13.4 13.1843 13.4843 13.0343 13.6343C12.8843 13.7843 12.8 13.9878 12.8 14.2V19C12.8 19.2122 12.8843 19.4157 13.0343 19.5657C13.1843 19.7157 13.3878 19.8 13.6 19.8ZM21.6 10.2H18.4V9.4C18.4 8.76348 18.1471 8.15303 17.6971 7.70294C17.247 7.25286 16.6365 7 16 7H14.4C13.7635 7 13.153 7.25286 12.7029 7.70294C12.2529 8.15303 12 8.76348 12 9.4V10.2H8.8C8.58783 10.2 8.38434 10.2843 8.23431 10.4343C8.08429 10.5843 8 10.7878 8 11C8 11.2122 8.08429 11.4157 8.23431 11.5657C8.38434 11.7157 8.58783 11.8 8.8 11.8H9.6V20.6C9.6 21.2365 9.85286 21.847 10.3029 22.2971C10.753 22.7471 11.3635 23 12 23H18.4C19.0365 23 19.647 22.7471 20.0971 22.2971C20.5471 21.847 20.8 21.2365 20.8 20.6V11.8H21.6C21.8122 11.8 22.0157 11.7157 22.1657 11.5657C22.3157 11.4157 22.4 11.2122 22.4 11C22.4 10.7878 22.3157 10.5843 22.1657 10.4343C22.0157 10.2843 21.8122 10.2 21.6 10.2ZM13.6 9.4C13.6 9.18783 13.6843 8.98434 13.8343 8.83431C13.9843 8.68429 14.1878 8.6 14.4 8.6H16C16.2122 8.6 16.4157 8.68429 16.5657 8.83431C16.7157 8.98434 16.8 9.18783 16.8 9.4V10.2H13.6V9.4ZM19.2 20.6C19.2 20.8122 19.1157 21.0157 18.9657 21.1657C18.8157 21.3157 18.6122 21.4 18.4 21.4H12C11.7878 21.4 11.5843 21.3157 11.4343 21.1657C11.2843 21.0157 11.2 20.8122 11.2 20.6V11.8H19.2V20.6ZM16.8 19.8C17.0122 19.8 17.2157 19.7157 17.3657 19.5657C17.5157 19.4157 17.6 19.2122 17.6 19V14.2C17.6 13.9878 17.5157 13.7843 17.3657 13.6343C17.2157 13.4843 17.0122 13.4 16.8 13.4C16.5878 13.4 16.3843 13.4843 16.2343 13.6343C16.0843 13.7843 16 13.9878 16 14.2V19C16 19.2122 16.0843 19.4157 16.2343 19.5657C16.3843 19.7157 16.5878 19.8 16.8 19.8Z" fill="#F26E6E"/>
</svg>
