<svg width="24" height="24" viewBox="0 0 24 24" fill="none" xmlns="http://www.w3.org/2000/svg">
<path d="M12 2.00403C6.47928 2.00403 2.00403 6.47928 2.00403 12C2.00403 17.5208 6.47928 21.996 12 21.996C17.5208 21.996 21.996 17.5208 21.996 12C21.996 6.47928 17.5208 2.00403 12 2.00403ZM12 21.1965C6.92928 21.1965 2.80353 17.0715 2.80353 12C2.80353 6.92853 6.92853 2.80353 12 2.80353C17.0715 2.80353 21.1965 6.92853 21.1965 12C21.1965 17.0708 17.0715 21.1965 12 21.1965Z" fill="white"/>
<path d="M11.9662 6.75977C9.93675 6.75977 8.8035 8.01377 8.78925 10.0013H9.67125C9.6435 8.55977 10.3987 7.50227 11.925 7.50227C13.0162 7.50227 13.926 8.27177 13.926 9.39152C13.926 10.119 13.5337 10.707 13.0162 11.1968C11.9527 12.1838 11.655 12.648 11.601 14.0003H12.4942C12.5467 12.774 12.5197 12.7988 13.59 11.7285C14.304 11.0565 14.8072 10.3845 14.8072 9.34877C14.8072 7.72577 13.5195 6.75977 11.967 6.75977H11.9662Z" fill="white"/>
<path d="M12 15.5992C11.559 15.5992 11.2005 15.957 11.2005 16.3987C11.2005 16.8405 11.559 17.1982 12 17.1982C12.441 17.1982 12.7995 16.8405 12.7995 16.3987C12.7995 15.9577 12.4418 15.5992 12 15.5992Z" fill="white"/>
</svg>
