<svg width="16" height="20" viewBox="0 0 16 20" fill="none" xmlns="http://www.w3.org/2000/svg">
<path fill-rule="evenodd" clip-rule="evenodd" d="M7.99997 19.1892L8.72124 18.3757C9.53936 17.4395 10.2757 16.549 10.9302 15.704L11.4711 14.9909C13.7284 11.9492 14.8571 9.53633 14.8571 7.7523C14.8571 3.9441 11.7871 0.856934 7.99997 0.856934C4.21287 0.856934 1.14282 3.9441 1.14282 7.7523C1.14282 9.53633 2.27149 11.9492 4.52882 14.9909L5.06978 15.704C5.91127 16.7904 6.888 17.9522 7.99997 19.1892Z" stroke="#5F5F5F" stroke-linecap="round" stroke-linejoin="round"/>
<path d="M7.99997 10.5712C9.57792 10.5712 10.8571 9.29203 10.8571 7.71408C10.8571 6.13612 9.57792 4.85693 7.99997 4.85693C6.42201 4.85693 5.14282 6.13612 5.14282 7.71408C5.14282 9.29203 6.42201 10.5712 7.99997 10.5712Z" stroke="#5F5F5F" stroke-linecap="round" stroke-linejoin="round"/>
</svg>
