<svg width="24" height="18" viewBox="0 0 24 18" fill="none" xmlns="http://www.w3.org/2000/svg">
<path d="M19.6159 0.206665H1.17745C0.528188 0.206665 0 0.734853 0 1.38412V13.4092C0 14.0584 0.528188 14.5866 1.17745 14.5866H12.8017C13.0092 14.5866 13.1775 14.4184 13.1775 14.2108C13.1775 14.0033 13.0092 13.835 12.8017 13.835H1.17745C0.942609 13.835 0.751547 13.6439 0.751547 13.4091V1.38412C0.751547 1.14927 0.942609 0.958212 1.17745 0.958212H19.6159C19.8507 0.958212 20.0418 1.14927 20.0418 1.38412V6.59507C20.0418 6.80259 20.21 6.97087 20.4176 6.97087C20.6251 6.97087 20.7934 6.80263 20.7934 6.59507V1.38412C20.7933 0.734853 20.2651 0.206665 19.6159 0.206665Z" fill="white"/>
<path d="M18.8147 7.42163C15.9552 7.42163 13.6289 9.74799 13.6289 12.6074C13.6289 15.4668 15.9553 17.7932 18.8147 17.7932C21.6741 17.7932 24.0005 15.4669 24.0005 12.6074C24.0005 9.74794 21.6741 7.42163 18.8147 7.42163ZM18.8147 17.0416C16.3696 17.0416 14.3805 15.0525 14.3805 12.6074C14.3805 10.1624 16.3696 8.17318 18.8147 8.17318C21.2597 8.17318 23.2489 10.1624 23.2489 12.6074C23.2489 15.0525 21.2597 17.0416 18.8147 17.0416Z" fill="white"/>
<path d="M6.38857 3.01245H3.1819C2.75365 3.01245 2.40527 3.36083 2.40527 3.78908V6.19409C2.40527 6.62234 2.75365 6.97072 3.1819 6.97072H6.38857C6.81682 6.97072 7.1652 6.62234 7.1652 6.19409V3.78908C7.1652 3.36083 6.81682 3.01245 6.38857 3.01245ZM4.00859 6.21912H3.1819C3.16807 6.21912 3.15687 6.20792 3.15687 6.19409V3.78908C3.15687 3.77525 3.16807 3.76404 3.1819 3.76404H4.00863V6.21912H4.00859ZM6.4136 6.19409C6.4136 6.20792 6.4024 6.21912 6.38857 6.21912H4.76018V5.36736H5.18609C5.3936 5.36736 5.56188 5.19912 5.56188 4.99156C5.56188 4.784 5.39365 4.61576 5.18609 4.61576H4.76018V3.764H6.38857C6.4024 3.764 6.4136 3.7752 6.4136 3.78903V6.19409Z" fill="white"/>
<path d="M16.2086 2.61169C15.7648 2.61169 15.3518 2.74533 15.0071 2.97399C14.6522 2.73882 14.2342 2.61169 13.8036 2.61169C12.6018 2.61169 11.624 3.58941 11.624 4.79124C11.624 5.99307 12.6017 6.97079 13.8036 6.97079C14.2475 6.97079 14.6606 6.83705 15.0055 6.60821C15.3604 6.84319 15.7789 6.97079 16.2086 6.97079C17.4104 6.97079 18.3881 5.99307 18.3881 4.79124C18.3881 3.58941 17.4104 2.61169 16.2086 2.61169ZM14.4427 6.06765C14.2502 6.1644 14.0332 6.21919 13.8036 6.21919C13.0162 6.21919 12.3756 5.5786 12.3756 4.79124C12.3756 4.00388 13.0162 3.36324 13.8036 3.36324C14.0277 3.36324 14.2464 3.41607 14.4435 3.51483C14.1831 3.8739 14.029 4.31476 14.029 4.79119C14.029 5.2546 14.1765 5.69958 14.4427 6.06765ZM16.2086 6.21919C15.9849 6.21919 15.7659 6.16627 15.5687 6.06746C15.8291 5.7084 15.9831 5.26758 15.9831 4.79119C15.9831 4.58368 15.8149 4.4154 15.6073 4.4154C15.3998 4.4154 15.2315 4.58363 15.2315 4.79119C15.2315 5.07418 15.1485 5.33804 15.0059 5.56013C14.8605 5.33283 14.7806 5.06701 14.7806 4.79119C14.7806 4.00379 15.4212 3.36319 16.2085 3.36319C16.9959 3.36319 17.6365 4.00379 17.6365 4.79119C17.6365 5.5786 16.996 6.21919 16.2086 6.21919Z" fill="white"/>
<path d="M12.4011 11.4301H2.78107C2.57355 11.4301 2.40527 11.5983 2.40527 11.8059C2.40527 12.0134 2.57351 12.1816 2.78107 12.1816H12.4011C12.6086 12.1816 12.7769 12.0134 12.7769 11.8059C12.7769 11.5983 12.6086 11.4301 12.4011 11.4301Z" fill="white"/>
<path d="M21.886 10.7385C21.7392 10.5917 21.5013 10.5917 21.3546 10.7385L18.0128 14.0803L16.2743 12.3418C16.1275 12.195 15.8896 12.195 15.7429 12.3418C15.5961 12.4886 15.5961 12.7265 15.7429 12.8732L17.7471 14.8774C17.8204 14.9508 17.9166 14.9875 18.0128 14.9875C18.1089 14.9875 18.2051 14.9508 18.2784 14.8774L21.8859 11.2699C22.0328 11.1231 22.0328 10.8853 21.886 10.7385Z" fill="white"/>
</svg>
