<svg width="57" height="10" viewBox="0 0 57 10" fill="none" xmlns="http://www.w3.org/2000/svg">
<path d="M10.152 3.77888C10.0854 3.56758 9.90258 3.41751 9.6863 3.39753L6.74849 3.12405L5.5868 0.336529C5.50115 0.132239 5.30607 0 5.08933 0C4.87258 0 4.67751 0.132239 4.59185 0.337006L3.43016 3.12405L0.491886 3.39753C0.275996 3.41799 0.0936545 3.56758 0.0266355 3.77888C-0.0403835 3.99018 0.02151 4.22193 0.184825 4.36802L2.40546 6.36458L1.75065 9.32169C1.70273 9.53911 1.78505 9.76386 1.96102 9.89427C2.05561 9.96433 2.16627 10 2.27787 10C2.37409 10 2.46953 9.97341 2.55519 9.92086L5.08933 8.36815L7.62254 9.92086C7.80791 10.0352 8.04158 10.0248 8.21716 9.89427C8.39322 9.76347 8.47546 9.53864 8.42754 9.32169L7.77273 6.36458L9.99336 4.36842C10.1567 4.22193 10.219 3.99057 10.152 3.77888Z" fill="#FFC107"/>
<path d="M21.8571 3.77888C21.7905 3.56758 21.6077 3.41751 21.3914 3.39753L18.4536 3.12405L17.2919 0.336529C17.2062 0.132239 17.0111 0 16.7944 0C16.5777 0 16.3826 0.132239 16.2969 0.337006L15.1352 3.12405L12.197 3.39753C11.9811 3.41799 11.7987 3.56758 11.7317 3.77888C11.6647 3.99018 11.7266 4.22193 11.8899 4.36802L14.1105 6.36458L13.4557 9.32169C13.4078 9.53911 13.4901 9.76386 13.6661 9.89427C13.7607 9.96433 13.8714 10 13.9829 10C14.0792 10 14.1746 9.97341 14.2603 9.92086L16.7944 8.36815L19.3276 9.92086C19.513 10.0352 19.7467 10.0248 19.9222 9.89427C20.0983 9.76347 20.1805 9.53864 20.1326 9.32169L19.4778 6.36458L21.6984 4.36842C21.8618 4.22193 21.9241 3.99057 21.8571 3.77888Z" fill="#FFC107"/>
<path d="M33.5632 3.77888C33.4965 3.56758 33.3137 3.41751 33.0974 3.39753L30.1596 3.12405L28.9979 0.336529C28.9123 0.132239 28.7172 0 28.5005 0C28.2837 0 28.0886 0.132239 28.003 0.337006L26.8413 3.12405L23.903 3.39753C23.6871 3.41799 23.5048 3.56758 23.4378 3.77888C23.3707 3.99018 23.4326 4.22193 23.596 4.36802L25.8166 6.36458L25.1618 9.32169C25.1139 9.53911 25.1962 9.76386 25.3722 9.89427C25.4667 9.96433 25.5774 10 25.689 10C25.7852 10 25.8807 9.97341 25.9663 9.92086L28.5005 8.36815L31.0337 9.92086C31.219 10.0352 31.4527 10.0248 31.6283 9.89427C31.8043 9.76347 31.8866 9.53864 31.8387 9.32169L31.1839 6.36458L33.4045 4.36842C33.5678 4.22193 33.6302 3.99057 33.5632 3.77888Z" fill="#D5CFDD"/>
<path d="M45.2682 3.77888C45.2016 3.56758 45.0188 3.41751 44.8025 3.39753L41.8647 3.12405L40.703 0.336529C40.6174 0.132239 40.4223 0 40.2055 0C39.9888 0 39.7937 0.132239 39.7081 0.337006L38.5464 3.12405L35.6081 3.39753C35.3922 3.41799 35.2099 3.56758 35.1428 3.77888C35.0758 3.99018 35.1377 4.22193 35.301 4.36802L37.5217 6.36458L36.8669 9.32169C36.8189 9.53911 36.9013 9.76386 37.0772 9.89427C37.1718 9.96433 37.2825 10 37.3941 10C37.4903 10 37.5857 9.97341 37.6714 9.92086L40.2055 8.36815L42.7387 9.92086C42.9241 10.0352 43.1578 10.0248 43.3334 9.89427C43.5094 9.76347 43.5917 9.53864 43.5438 9.32169L42.8889 6.36458L45.1096 4.36842C45.2729 4.22193 45.3352 3.99057 45.2682 3.77888Z" fill="#D5CFDD"/>
<path d="M56.9733 3.77888C56.9067 3.56758 56.7239 3.41751 56.5076 3.39753L53.5698 3.12405L52.4081 0.336529C52.3224 0.132239 52.1274 0 51.9106 0C51.6939 0 51.4988 0.132239 51.4131 0.337006L50.2514 3.12405L47.3132 3.39753C47.0973 3.41799 46.9149 3.56758 46.8479 3.77888C46.7809 3.99018 46.8428 4.22193 47.0061 4.36802L49.2267 6.36458L48.5719 9.32169C48.524 9.53911 48.6063 9.76386 48.7823 9.89427C48.8769 9.96433 48.9876 10 49.0992 10C49.1954 10 49.2908 9.97341 49.3765 9.92086L51.9106 8.36815L54.4438 9.92086C54.6292 10.0352 54.8629 10.0248 55.0385 9.89427C55.2145 9.76347 55.2967 9.53864 55.2488 9.32169L54.594 6.36458L56.8147 4.36842C56.978 4.22193 57.0403 3.99057 56.9733 3.77888Z" fill="#D5CFDD"/>
</svg>
