<svg width="24" height="24" viewBox="0 0 24 24" fill="none" xmlns="http://www.w3.org/2000/svg">
<path d="M11.625 0C5.20312 0 0 5.20312 0 11.625C0 18.0469 5.20312 23.25 11.625 23.25C18.0469 23.25 23.25 18.0469 23.25 11.625C23.25 5.20312 18.0469 0 11.625 0ZM17.325 14.6766C17.5453 14.8969 17.5453 15.2531 17.325 15.4734L15.4688 17.325C15.2484 17.5453 14.8922 17.5453 14.6719 17.325L11.625 14.25L8.57344 17.325C8.35312 17.5453 7.99687 17.5453 7.77656 17.325L5.925 15.4688C5.70469 15.2484 5.70469 14.8922 5.925 14.6719L9 11.625L5.925 8.57344C5.70469 8.35312 5.70469 7.99687 5.925 7.77656L7.78125 5.92031C8.00156 5.7 8.35781 5.7 8.57812 5.92031L11.625 9L14.6766 5.925C14.8969 5.70469 15.2531 5.70469 15.4734 5.925L17.3297 7.78125C17.55 8.00156 17.55 8.35781 17.3297 8.57812L14.25 11.625L17.325 14.6766Z" fill="#DB133E"/>
</svg>
