<svg width="30" height="30" viewBox="0 0 30 30" fill="none" xmlns="http://www.w3.org/2000/svg">
<rect x="0.5" y="0.5" width="29" height="29" rx="8.5" stroke="#F2F2F2"/>
<path d="M21.4908 12.3839C19.6531 10.817 17.7406 9.98877 15.96 9.98877C14.1794 9.98877 12.2669 10.817 10.4292 12.3839C9.06129 13.5503 8.21902 14.7031 8.18385 14.7516L8 15.005L8.18385 15.2584C8.21902 15.3069 9.06134 16.4597 10.4292 17.6261C12.2669 19.193 14.1794 20.0212 15.96 20.0212C17.7406 20.0212 19.6531 19.193 21.4908 17.6261C22.8587 16.4597 23.7009 15.3069 23.7361 15.2584L23.9199 15.005L23.7361 14.7516C23.701 14.7031 22.8587 13.5502 21.4908 12.3839ZM15.96 19.1613C12.6672 19.1613 9.82882 15.9425 9.07189 15.0047C9.82791 14.0663 12.6614 10.8486 15.96 10.8486C19.2527 10.8486 22.0911 14.0674 22.8481 15.0052C22.092 15.9436 19.2585 19.1613 15.96 19.1613ZM15.96 11.6886C14.1416 11.6886 12.6622 13.1764 12.6622 15.005C12.6622 16.8337 14.1415 18.3214 15.96 18.3214C17.7784 18.3214 19.2578 16.8337 19.2578 15.005C19.2578 13.1764 17.7784 11.6886 15.96 11.6886ZM15.96 17.4614C14.6131 17.4614 13.5172 16.3595 13.5172 15.005C13.5172 13.6505 14.613 12.5485 15.96 12.5485C17.3069 12.5485 18.4027 13.6505 18.4027 15.005C18.4027 16.3595 17.3069 17.4614 15.96 17.4614ZM17.3371 14.4871C17.4253 14.6803 17.4749 14.8952 17.4749 15.1219C17.4749 15.9632 16.7966 16.6454 15.9599 16.6454C15.1232 16.6454 14.445 15.9632 14.445 15.1219C14.445 14.8952 14.4946 14.6803 14.5828 14.4871C14.8222 15.0114 15.3486 15.3758 15.9599 15.3758C16.5712 15.3758 17.0976 15.0114 17.3371 14.4871Z" fill="#34A853"/>
</svg>
