<svg width="24" height="24" viewBox="0 0 24 24" fill="none" xmlns="http://www.w3.org/2000/svg">
<path d="M22.7644 9.33333H20.5191C20.1582 9.33333 19.8609 9.13467 19.7227 8.80133C19.5844 8.468 19.6547 8.11689 19.9093 7.86178L21.4969 6.27467C21.7302 6.04133 21.8587 5.73067 21.8587 5.40089C21.8587 5.07067 21.7302 4.76044 21.4969 4.52667L19.4733 2.50311C19.0067 2.03644 18.1929 2.03556 17.7253 2.50311L16.1382 4.09022C15.8831 4.34489 15.5311 4.416 15.1987 4.27733C14.8653 4.13911 14.6667 3.84178 14.6667 3.48089V1.23556C14.6667 0.554222 14.1124 0 13.4311 0H10.5689C9.88756 0 9.33333 0.554222 9.33333 1.23556V3.48089C9.33333 3.84178 9.13467 4.13911 8.80133 4.27733C8.46889 4.41644 8.11689 4.34489 7.86178 4.09022L6.27467 2.50311C5.80711 2.03556 4.99333 2.03644 4.52667 2.50311L2.50311 4.52667C2.26978 4.76 2.14133 5.07067 2.14133 5.40089C2.14133 5.73067 2.26978 6.04089 2.50311 6.27467L4.09067 7.86178C4.34533 8.11689 4.41511 8.468 4.27733 8.80133C4.13956 9.13467 3.84178 9.33333 3.48089 9.33333H1.23556C0.554222 9.33333 0 9.88756 0 10.5689V13.4307C0 14.1124 0.554222 14.6667 1.23556 14.6667H3.48089C3.84178 14.6667 4.13911 14.8653 4.27733 15.1987C4.41556 15.532 4.34533 15.8831 4.09067 16.1382L2.50311 17.7253C2.26978 17.9587 2.14133 18.2693 2.14133 18.5991C2.14133 18.9293 2.26978 19.2396 2.50311 19.4733L4.52667 21.4969C4.99378 21.964 5.80711 21.9649 6.27467 21.4969L7.86178 19.9093C8.11689 19.6547 8.46756 19.5844 8.80133 19.7227C9.13467 19.8609 9.33333 20.1582 9.33333 20.5191V22.7644C9.33333 23.4458 9.88756 24 10.5689 24H13.4307C14.112 24 14.6662 23.4458 14.6662 22.7644V20.5191C14.6662 20.1582 14.8649 19.8609 15.1982 19.7227C15.532 19.584 15.8827 19.6547 16.1378 19.9093L17.7249 21.4969C18.1924 21.9644 19.0062 21.9636 19.4729 21.4969L21.4964 19.4733C21.7298 19.24 21.8582 18.9293 21.8582 18.5991C21.8582 18.2693 21.7298 17.9591 21.4964 17.7253L19.9089 16.1382C19.6542 15.8831 19.5844 15.532 19.7222 15.1987C19.86 14.8653 20.1582 14.6667 20.5191 14.6667H22.7644C23.4458 14.6667 24 14.1124 24 13.4311V10.5689C24 9.88756 23.4458 9.33333 22.7644 9.33333ZM23.1111 13.4311C23.1111 13.6222 22.9556 13.7778 22.7644 13.7778H20.5191C19.7973 13.7778 19.1773 14.192 18.9013 14.8587C18.6249 15.5253 18.7702 16.2569 19.2809 16.7671L20.8684 18.3542C21.004 18.4898 21.004 18.7098 20.8684 18.8449L18.8449 20.8684C18.7098 21.0036 18.4898 21.0044 18.3542 20.8684L16.7671 19.2809C16.2564 18.7702 15.5253 18.6258 14.8587 18.9013C14.192 19.1773 13.7778 19.7973 13.7778 20.5191V22.7644C13.7778 22.9556 13.6222 23.1111 13.4311 23.1111H10.5689C10.3778 23.1111 10.2222 22.9556 10.2222 22.7644V20.5191C10.2222 19.7973 9.808 19.1773 9.14133 18.9013C8.91778 18.8084 8.68756 18.7631 8.46 18.7631C8.00933 18.7631 7.57244 18.9409 7.23289 19.2804L5.64578 20.868C5.50978 21.004 5.28978 21.0031 5.15511 20.868L3.13156 18.8444C2.996 18.7089 2.996 18.4889 3.13156 18.3538L4.71911 16.7667C5.22933 16.2564 5.37511 15.5249 5.09867 14.8582C4.82267 14.192 4.20267 13.7778 3.48089 13.7778H1.23556C1.04444 13.7778 0.888889 13.6222 0.888889 13.4311V10.5689C0.888889 10.3778 1.04444 10.2222 1.23556 10.2222H3.48089C4.20267 10.2222 4.82267 9.808 5.09867 9.14133C5.37511 8.47467 5.22978 7.74311 4.71911 7.23289L3.13156 5.64578C2.996 5.51022 2.996 5.29022 3.13156 5.15511L5.15511 3.13156C5.29022 2.996 5.51022 2.996 5.64578 3.13156L7.23289 4.71867C7.74267 5.22844 8.47378 5.37467 9.14133 5.09822C9.808 4.82267 10.2222 4.20267 10.2222 3.48089V1.23556C10.2222 1.04444 10.3778 0.888889 10.5689 0.888889H13.4307C13.6222 0.888889 13.7778 1.04444 13.7778 1.23556V3.48089C13.7778 4.20267 14.192 4.82267 14.8587 5.09867C15.5262 5.37511 16.2569 5.22933 16.7671 4.71911L18.3542 3.132C18.4902 2.99644 18.7102 2.99644 18.8449 3.132L20.8684 5.15556C21.004 5.29111 21.004 5.51111 20.8684 5.64622L19.2809 7.23333C18.7707 7.74356 18.6249 8.47511 18.9013 9.14178C19.1773 9.80844 19.7973 10.2227 20.5191 10.2227H22.7644C22.9556 10.2222 23.1111 10.3778 23.1111 10.5689V13.4311Z" fill="white"/>
</svg>
