<svg width="20" height="20" viewBox="0 0 20 20" fill="none" xmlns="http://www.w3.org/2000/svg">
<path d="M19.9478 7.55776C19.8169 7.13517 19.4577 6.83502 19.0327 6.79506L13.2602 6.24811L10.9776 0.673057C10.8093 0.264478 10.426 0 10.0001 0C9.5742 0 9.19089 0.264478 9.02258 0.674012L6.73996 6.24811L0.966512 6.79506C0.542308 6.83598 0.184023 7.13517 0.0523364 7.55776C-0.0793501 7.98035 0.0422653 8.44386 0.363165 8.73605L4.72652 12.7292L3.43987 18.6434C3.34572 19.0782 3.50747 19.5277 3.85324 19.7885C4.03909 19.9287 4.25654 20 4.47581 20C4.66487 20 4.85241 19.9468 5.02072 19.8417L10.0001 16.7363L14.9776 19.8417C15.3419 20.0704 15.801 20.0495 16.146 19.7885C16.4919 19.5269 16.6535 19.0773 16.5594 18.6434L15.2727 12.7292L19.6361 8.73684C19.957 8.44386 20.0795 7.98115 19.9478 7.55776Z" fill="#FFC107"/>
</svg>
