<svg width="24" height="18" viewBox="0 0 24 18" fill="none" xmlns="http://www.w3.org/2000/svg">
<path d="M12.344 9.23294C12.9269 8.74391 13.3944 8.13905 13.7149 7.45944C14.0353 6.77982 14.2011 6.04134 14.2011 5.29412C14.2011 3.89003 13.6256 2.54345 12.6013 1.55061C11.577 0.557772 10.1877 1.89435e-07 8.73914 1.89435e-07C7.29054 1.89435e-07 5.90127 0.557772 4.87695 1.55061C3.85263 2.54345 3.27718 3.89003 3.27718 5.29412C3.27717 6.04134 3.443 6.77982 3.76343 7.45944C4.08385 8.13905 4.55137 8.74391 5.13424 9.23294C3.60505 9.90411 2.30764 10.988 1.39715 12.3549C0.486656 13.7219 0.00160784 15.3141 0 16.9412C0 17.222 0.115091 17.4913 0.319954 17.6899C0.524818 17.8884 0.802672 18 1.09239 18C1.38211 18 1.65997 17.8884 1.86483 17.6899C2.06969 17.4913 2.18478 17.222 2.18478 16.9412C2.18478 15.2563 2.87533 13.6404 4.10451 12.449C5.33369 11.2576 7.00082 10.5882 8.73914 10.5882C10.4775 10.5882 12.1446 11.2576 13.3738 12.449C14.6029 13.6404 15.2935 15.2563 15.2935 16.9412C15.2935 17.222 15.4086 17.4913 15.6134 17.6899C15.8183 17.8884 16.0962 18 16.3859 18C16.6756 18 16.9535 17.8884 17.1583 17.6899C17.3632 17.4913 17.4783 17.222 17.4783 16.9412C17.4767 15.3141 16.9916 13.7219 16.0811 12.3549C15.1706 10.988 13.8732 9.90411 12.344 9.23294ZM8.73914 8.47059C8.09097 8.47059 7.45737 8.28429 6.91844 7.93526C6.37951 7.58622 5.95946 7.09012 5.71142 6.5097C5.46338 5.92928 5.39848 5.29059 5.52493 4.67442C5.65138 4.05824 5.9635 3.49225 6.42183 3.04801C6.88015 2.60378 7.46408 2.30125 8.09979 2.17868C8.7355 2.05612 9.39444 2.11902 9.99326 2.35944C10.5921 2.59986 11.1039 3.007 11.464 3.52936C11.8241 4.05173 12.0163 4.66587 12.0163 5.29412C12.0163 6.13657 11.671 6.94452 11.0565 7.54022C10.4419 8.13593 9.6083 8.47059 8.73914 8.47059ZM19.379 8.80941C20.0781 8.04635 20.5348 7.1037 20.6941 6.09495C20.8533 5.08619 20.7084 4.05431 20.2767 3.12353C19.8451 2.19274 19.145 1.40272 18.2609 0.848565C17.3768 0.294406 16.3463 -0.000272753 15.2935 1.89435e-07C15.0038 1.89435e-07 14.7259 0.111554 14.5211 0.310122C14.3162 0.50869 14.2011 0.778006 14.2011 1.05882C14.2011 1.33964 14.3162 1.60896 14.5211 1.80752C14.7259 2.00609 15.0038 2.11765 15.2935 2.11765C16.1627 2.11765 16.9962 2.45231 17.6108 3.04801C18.2254 3.64372 18.5707 4.45166 18.5707 5.29412C18.5691 5.85025 18.417 6.39625 18.1294 6.8775C17.8419 7.35876 17.429 7.7584 16.9321 8.03647C16.7701 8.12702 16.6349 8.25635 16.5392 8.41208C16.4436 8.56781 16.3908 8.74472 16.3859 8.92588C16.3813 9.10563 16.424 9.28355 16.5101 9.44286C16.5961 9.60217 16.7225 9.73763 16.8775 9.83647L17.3035 10.1118L17.4455 10.1859C18.7623 10.7912 19.8731 11.7487 20.6473 12.9455C21.4214 14.1423 21.8266 15.5286 21.8151 16.9412C21.8151 17.222 21.9302 17.4913 22.135 17.6899C22.3399 17.8884 22.6177 18 22.9075 18C23.1972 18 23.475 17.8884 23.6799 17.6899C23.8848 17.4913 23.9999 17.222 23.9999 16.9412C24.0088 15.3163 23.5889 13.7163 22.7802 12.293C21.9714 10.8697 20.8006 9.67057 19.379 8.80941Z" fill="white"/>
</svg>
