<svg width="24" height="20" viewBox="0 0 24 20" fill="none" xmlns="http://www.w3.org/2000/svg">
<path d="M23.8555 10.5897L21.2681 8.24643V2.65675C21.2681 2.41588 21.0728 2.22101 20.8324 2.22101H18.5547C18.439 2.22101 18.3278 2.26655 18.2458 2.3487C18.1636 2.43086 18.1177 2.5419 18.119 2.65806L18.125 5.39958L12.4817 0.28808C12.3165 0.138752 12.0677 0.137444 11.9004 0.284275L0.148258 10.6355C-0.00190184 10.7674 -0.0431571 10.9832 0.0482703 11.161C0.138509 11.3376 0.337652 11.4321 0.531682 11.3879L3.14384 10.7982V18.854C3.14135 18.9243 3.14004 19.2876 3.40303 19.5607C3.51966 19.6807 3.72855 19.8249 4.06513 19.8249C4.69312 19.8249 9.89402 19.8185 9.89402 19.8185C10.1352 19.8185 10.3293 19.6231 10.3298 19.3827L10.3365 14.5666C10.3323 14.5105 10.3425 14.3679 10.4004 14.3044C10.4395 14.2627 10.5233 14.2529 10.5855 14.2529H13.0053C13.1138 14.2529 13.2605 14.2704 13.3359 14.3486C13.4189 14.4338 13.4176 14.5818 13.4163 14.6047L13.4052 19.3673C13.4052 19.4826 13.4503 19.5937 13.5324 19.6762C13.6141 19.7578 13.7265 19.8047 13.8413 19.8047H19.5485C19.9365 19.8047 20.1748 19.6409 20.305 19.5042C20.6092 19.1876 20.599 18.7537 20.5973 18.7238V10.6667L23.4639 11.3372C23.6593 11.3836 23.8571 11.2909 23.9503 11.1152C24.0428 10.9394 24.0037 10.7236 23.8555 10.5897ZM18.9922 3.09285H20.3971V7.45675L18.999 6.19044L18.9922 3.09285ZM20.2602 9.69227C20.1316 9.66159 19.9938 9.69227 19.8904 9.77525C19.7866 9.85776 19.7253 9.98379 19.7253 10.1169V18.7349C19.7253 18.7817 19.7083 18.8681 19.6754 18.9017C19.6487 18.9281 19.5849 18.9315 19.5482 18.9315H14.278L14.2874 14.6361C14.2912 14.5838 14.3133 14.117 13.9772 13.7562C13.816 13.5856 13.5185 13.3813 13.0046 13.3813H10.5848C10.1503 13.3813 9.89164 13.5665 9.75123 13.7213C9.4521 14.0527 9.45721 14.4969 9.46482 14.6216L9.45804 18.9472C8.19435 18.9486 4.58148 18.9532 4.06442 18.9532C4.04873 18.9532 4.03886 18.9524 4.03256 18.9524C4.03172 18.9524 4.03042 18.9524 4.02958 18.9524C4.0215 18.9349 4.01556 18.9017 4.01556 18.872V10.2532C4.01556 10.1209 3.95433 9.99532 3.85137 9.91233C3.74757 9.82982 3.6118 9.79962 3.48328 9.82768L2.0051 10.1613L12.1837 1.19617L18.1266 6.57826V6.60418H18.1547L22.0199 10.1052L20.2602 9.69227Z" fill="white"/>
</svg>
